<mxfile host="65bd71144e">
    <diagram id="qQsMmkb8p2qCaed6Aib5" name="Page-1">
        <mxGraphModel dx="1137" dy="523" grid="0" gridSize="10" guides="1" tooltips="1" connect="1" arrows="1" fold="1" page="1" pageScale="1" pageWidth="850" pageHeight="1100" math="0" shadow="0">
            <root>
                <mxCell id="0"/>
                <mxCell id="1" parent="0"/>
                <mxCell id="2" value="&amp;lt;&amp;lt;device&amp;gt;&amp;gt;&lt;br&gt;Web Server - Flask&lt;br&gt;&lt;br&gt;&lt;br&gt;&lt;br&gt;&lt;br&gt;" style="shape=cube;whiteSpace=wrap;html=1;boundedLbl=1;backgroundOutline=1;darkOpacity=0.05;darkOpacity2=0.1;" vertex="1" parent="1">
                    <mxGeometry x="150" y="260" width="170" height="130" as="geometry"/>
                </mxCell>
                <mxCell id="3" value="&amp;lt;&amp;lt;artifact&amp;gt;&amp;gt;&lt;br&gt;Website" style="rounded=0;whiteSpace=wrap;html=1;direction=west;" vertex="1" parent="1">
                    <mxGeometry x="200" y="330" width="90" height="50" as="geometry"/>
                </mxCell>
                <mxCell id="6" style="edgeStyle=none;html=1;entryX=0.994;entryY=0.269;entryDx=0;entryDy=0;entryPerimeter=0;strokeColor=none;endArrow=none;endFill=0;" edge="1" parent="1" source="4" target="2">
                    <mxGeometry relative="1" as="geometry"/>
                </mxCell>
                <mxCell id="7" style="edgeStyle=none;html=1;endArrow=none;endFill=0;exitX=-0.018;exitY=0.623;exitDx=0;exitDy=0;exitPerimeter=0;" edge="1" parent="1" source="4" target="2">
                    <mxGeometry relative="1" as="geometry"/>
                </mxCell>
                <mxCell id="4" value="&amp;lt;&amp;lt;device&amp;gt;&amp;gt;&lt;br&gt;:DB Server&lt;br&gt;&lt;br&gt;&lt;br&gt;&lt;br&gt;&lt;br&gt;" style="shape=cube;whiteSpace=wrap;html=1;boundedLbl=1;backgroundOutline=1;darkOpacity=0.05;darkOpacity2=0.1;" vertex="1" parent="1">
                    <mxGeometry x="490" y="120" width="170" height="130" as="geometry"/>
                </mxCell>
                <mxCell id="5" value="&amp;lt;&amp;lt;artifact&amp;gt;&amp;gt;&lt;br&gt;Postgre SQL" style="rounded=0;whiteSpace=wrap;html=1;direction=west;" vertex="1" parent="1">
                    <mxGeometry x="540" y="190" width="90" height="50" as="geometry"/>
                </mxCell>
                <mxCell id="11" style="edgeStyle=none;html=1;entryX=1.018;entryY=0.746;entryDx=0;entryDy=0;entryPerimeter=0;endArrow=none;endFill=0;" edge="1" parent="1" source="8" target="2">
                    <mxGeometry relative="1" as="geometry"/>
                </mxCell>
                <mxCell id="8" value="&amp;lt;&amp;lt;device&amp;gt;&amp;gt;&lt;br&gt;:User Client&lt;br&gt;&lt;br&gt;&lt;br&gt;&lt;br&gt;&lt;br&gt;&lt;br&gt;&lt;br&gt;&lt;br&gt;&lt;br&gt;&lt;br&gt;&lt;br&gt;" style="shape=cube;whiteSpace=wrap;html=1;boundedLbl=1;backgroundOutline=1;darkOpacity=0.05;darkOpacity2=0.1;" vertex="1" parent="1">
                    <mxGeometry x="500" y="350" width="260" height="200" as="geometry"/>
                </mxCell>
                <mxCell id="10" value="&amp;lt;&amp;lt;device&amp;gt;&amp;gt;&lt;br&gt;:Browser&lt;br&gt;&lt;br&gt;&lt;br&gt;&lt;br&gt;&lt;br&gt;" style="shape=cube;whiteSpace=wrap;html=1;boundedLbl=1;backgroundOutline=1;darkOpacity=0.05;darkOpacity2=0.1;" vertex="1" parent="1">
                    <mxGeometry x="560" y="420" width="170" height="130" as="geometry"/>
                </mxCell>
                <mxCell id="9" value="&amp;lt;&amp;lt;artifact&amp;gt;&amp;gt;&lt;br&gt;HTML 5" style="rounded=0;whiteSpace=wrap;html=1;direction=west;" vertex="1" parent="1">
                    <mxGeometry x="610" y="490" width="90" height="50" as="geometry"/>
                </mxCell>
            </root>
        </mxGraphModel>
    </diagram>
</mxfile>